<?xml version="1.0" encoding="utf-8"?>
<!-- Generator: Adobe Illustrator 24.0.1, SVG Export Plug-In . SVG Version: 6.00 Build 0)  -->
<svg version="1.1" id="圖層_1" xmlns="http://www.w3.org/2000/svg" xmlns:xlink="http://www.w3.org/1999/xlink" x="0px" y="0px"
	 viewBox="0 0 20 20" style="enable-background:new 0 0 20 20;" xml:space="preserve">
<style type="text/css">
	.st0{fill:#63C1C4;}
</style>
<path class="st0" d="M14.6,3.5c1,0,1.9,0.9,1.9,1.9v9.2c0,1-0.9,1.9-1.9,1.9H5.4c-1-0.1-1.9-0.9-1.9-1.9V5.3c0-1,0.9-1.9,1.9-1.9
	C5.4,3.5,14.6,3.5,14.6,3.5z M13.4,8.6c0.3-0.3,0.3-0.8,0-1.1s-0.8-0.3-1.1,0l0,0l0,0l-3.1,3.1L7.8,9.3C7.5,9.1,7,9.1,6.6,9.3
	c-0.4,0.3-0.3,0.8,0,1.1l1.9,1.9c0.3,0.3,0.8,0.3,1.1,0l0,0L13.4,8.6z"/>
<rect x="5.5" y="5.2" class="st0" width="9" height="9.7"/>
</svg>
